<?xml version="1.0" standalone="no"?>
<!DOCTYPE svg PUBLIC "-//W3C//DTD SVG 20010904//EN"
 "http://www.w3.org/TR/2001/REC-SVG-20010904/DTD/svg10.dtd">
<svg version="1.0" xmlns="http://www.w3.org/2000/svg"
 width="512.000000pt" height="512.000000pt" viewBox="0 0 512.000000 512.000000"
 preserveAspectRatio="xMidYMid meet">

<g transform="translate(0.000000,512.000000) scale(0.100000,-0.100000)"
fill="#000000" stroke="none">
<path d="M2110 4345 c-191 -35 -275 -83 -522 -292 -113 -95 -229 -231 -281
-328 -38 -71 -127 -254 -127 -263 0 -4 -12 -19 -26 -33 -62 -58 -108 -135
-134 -224 -13 -43 -30 -235 -30 -331 0 -119 15 -176 61 -234 l39 -49 -20 -138
c-10 -76 -26 -170 -34 -208 -22 -105 -74 -491 -87 -650 -16 -185 -15 -535 0
-660 30 -234 106 -415 237 -559 73 -81 112 -104 218 -127 58 -13 59 -13 82 14
29 34 34 34 69 -3 36 -38 63 -38 160 -1 54 21 86 28 110 24 34 -5 233 28 287
49 28 10 51 54 63 121 4 20 10 37 14 37 3 0 20 -25 36 -56 46 -86 62 -92 191
-70 59 10 176 24 261 31 179 15 197 24 210 104 4 25 8 51 8 56 1 6 3 18 3 28
3 34 19 8 31 -50 15 -76 22 -85 70 -92 l41 -6 -26 -55 c-39 -82 -46 -118 -25
-130 66 -35 220 -14 340 46 92 46 157 106 211 195 53 85 117 153 163 173 43
17 120 105 158 178 30 59 82 208 94 268 16 84 17 477 1 660 -9 102 -18 221
-21 265 -3 44 -8 89 -10 100 -2 11 -11 81 -20 155 -26 229 -79 412 -171 590
l-44 86 20 39 c27 53 27 149 -1 240 -30 97 -87 253 -107 294 -24 48 -98 128
-135 146 -44 22 -58 34 -92 80 -77 105 -236 274 -295 313 -14 9 -50 35 -80 57
-52 39 -157 94 -245 129 -36 14 -92 28 -305 71 -103 21 -255 26 -340 10z m300
-155 c49 -7 81 -17 95 -30 12 -11 26 -20 32 -20 6 0 24 -7 39 -15 16 -8 37
-15 48 -15 14 0 17 -5 12 -24 -5 -20 -1 -24 25 -30 27 -5 30 -9 25 -29 -6 -26
17 -52 67 -74 30 -14 36 -39 10 -46 -10 -2 -6 -4 8 -3 14 1 31 -3 37 -10 9
-10 -18 -11 -122 -7 -87 4 -135 2 -139 -5 -4 -6 3 -10 16 -9 71 2 273 -17 282
-27 6 -6 14 -19 18 -29 9 -25 34 -32 62 -17 13 7 28 9 34 6 20 -13 12 -23 -13
-19 -24 5 -25 4 -19 -53 3 -33 12 -64 19 -70 8 -6 14 -18 14 -27 0 -8 7 -18
16 -21 11 -4 14 -13 10 -30 -4 -16 0 -30 9 -40 21 -21 19 -24 -20 -32 -43 -8
-46 -32 -6 -40 74 -15 -6 -44 -179 -64 -47 -5 -123 -14 -170 -20 -47 -6 -107
-13 -135 -16 -27 -3 -84 -8 -125 -10 -41 -3 -84 -5 -95 -6 -11 -1 -23 -7 -27
-12 -5 -7 -8 -7 -8 2 0 6 -8 12 -17 12 -16 0 -16 -2 -3 -11 11 -8 4 -9 -27 -6
-24 3 -43 1 -43 -4 0 -6 -19 -9 -42 -8 -24 0 -82 -2 -129 -6 -85 -8 -172 0
-153 13 12 9 17 35 5 28 -5 -4 -18 5 -29 19 -11 14 -34 30 -52 36 -30 11 -30
12 -15 35 12 18 13 29 5 44 -11 21 -30 27 -30 10 0 -5 -4 -10 -9 -10 -11 0
-37 97 -33 125 1 11 9 23 18 28 9 5 13 16 9 27 -7 23 14 38 26 19 7 -12 9 -12
9 0 0 19 30 40 57 41 12 0 24 4 28 9 3 6 13 10 23 9 9 0 42 7 72 16 30 9 87
22 125 31 39 8 89 19 113 25 23 5 52 10 64 10 12 0 19 3 16 6 -10 9 -198 -17
-198 -28 0 -5 -5 -6 -11 -2 -6 3 -28 2 -48 -4 -20 -6 -76 -20 -126 -31 -49
-11 -101 -23 -115 -27 -14 -3 -21 -2 -15 3 6 4 19 26 30 48 11 22 46 66 79 97
41 40 57 62 52 73 -9 23 19 46 57 48 25 2 31 6 29 21 -3 18 4 28 69 94 64 63
190 80 389 52z m447 -296 c-3 -3 -12 -4 -19 -1 -8 3 -5 6 6 6 11 1 17 -2 13
-5z m-1064 -568 c17 -13 16 -14 -7 -12 -15 0 -26 7 -26 14 0 15 10 15 33 -2z
m789 -132 c-26 -18 -60 -44 -77 -57 -29 -25 -29 -26 -12 -44 17 -17 19 -17 55
5 188 116 346 137 515 66 43 -18 63 -22 71 -14 7 7 7 16 -2 30 -14 24 -5 26
24 6 30 -21 121 -270 153 -417 6 -26 15 -57 20 -71 17 -44 70 -351 81 -463 17
-181 10 -432 -11 -419 -5 3 -9 -4 -9 -15 0 -10 -3 -21 -8 -23 -8 -3 -92 -143
-92 -153 0 -4 -12 -24 -27 -44 -16 -20 -32 -43 -38 -52 -25 -41 -102 -138
-137 -171 -21 -21 -38 -45 -38 -54 0 -8 -4 -13 -9 -9 -5 3 -22 -12 -38 -32
-40 -54 -70 -79 -133 -110 -30 -14 -57 -29 -60 -32 -3 -3 -12 -7 -20 -7 -8 -1
-28 -4 -45 -8 -16 -3 -24 -3 -17 0 6 3 10 9 7 14 -3 4 0 21 5 36 5 16 11 70
13 121 l4 92 62 67 c34 37 59 70 56 72 -3 3 -29 -18 -58 -46 -29 -29 -56 -52
-61 -52 -5 0 -6 20 -4 45 5 40 15 55 88 131 91 95 137 177 147 263 5 48 7 51
34 51 22 0 29 5 29 20 0 43 -82 54 -88 12 -3 -16 -15 -29 -40 -39 -64 -27
-374 -103 -477 -118 -55 -8 -148 -22 -206 -31 -98 -15 -140 -15 -226 0 -64 11
-51 -10 107 -172 33 -34 80 -69 117 -87 60 -30 73 -45 73 -93 0 -22 -1 -22
-32 -7 -31 15 -31 14 10 -22 36 -33 45 -49 62 -113 10 -41 31 -99 45 -127 28
-58 30 -67 15 -58 -6 4 -27 9 -48 11 -20 3 -47 12 -60 20 -13 9 -30 13 -38 10
-8 -3 -14 -1 -14 4 0 6 -6 10 -13 10 -7 0 -34 13 -60 30 -26 16 -47 27 -47 24
0 -5 -50 30 -124 86 -21 17 -45 30 -52 30 -8 0 -14 4 -14 10 0 5 -14 17 -31
26 -42 21 -84 58 -206 181 -105 106 -192 231 -227 328 -11 28 -23 55 -28 62
-5 7 -11 22 -13 35 -1 13 -7 43 -13 68 -6 25 -16 124 -22 220 -5 96 -13 217
-16 268 -4 58 -10 90 -16 86 -6 -4 -8 1 -4 14 4 12 3 30 -3 40 -5 10 -12 36
-14 58 -3 21 -8 55 -12 75 -5 25 -2 46 9 66 21 42 111 121 166 145 25 12 68
31 97 44 28 13 59 24 67 24 9 0 16 3 16 8 0 4 26 15 58 24 153 46 172 52 172
61 0 5 11 6 24 3 14 -3 28 -1 31 4 4 6 10 8 15 5 5 -3 11 -1 15 5 3 5 19 10
35 10 16 0 32 5 35 10 3 6 24 10 45 10 21 0 65 7 97 15 73 18 223 33 330 31
l82 -1 -47 -31z m-122 -1490 c-109 -22 -253 -34 -265 -22 -3 3 29 11 72 17 43
6 103 15 133 20 30 5 82 9 115 9 58 0 55 -1 -55 -24z m260 -212 c12 -24 15
-56 13 -115 -6 -161 -33 -258 -81 -298 -26 -22 -102 -36 -102 -19 0 7 -6 10
-13 7 -8 -3 -19 -2 -25 2 -14 9 -62 79 -62 91 0 6 -5 10 -11 10 -29 0 -105
243 -89 285 4 11 24 30 44 40 35 19 38 19 67 2 39 -22 102 -22 120 -1 19 23
49 34 89 31 29 -2 38 -8 50 -35z"/>
<path d="M2357 3874 c-14 -15 4 -19 65 -15 47 3 57 6 38 12 -32 9 -95 11 -103
3z"/>
<path d="M2498 3873 c7 -3 16 -2 19 1 4 3 -2 6 -13 5 -11 0 -14 -3 -6 -6z"/>
<path d="M2265 3860 c-4 -6 7 -10 27 -10 25 0 29 3 18 10 -19 13 -37 13 -45 0z"/>
<path d="M1768 3833 c6 -2 18 -2 25 0 6 3 1 5 -13 5 -14 0 -19 -2 -12 -5z"/>
<path d="M1764 3799 c0 -14 4 -15 18 -8 10 5 18 11 18 13 0 2 -8 6 -18 8 -12
4 -18 -1 -18 -13z"/>
<path d="M1740 3709 c0 -5 5 -7 10 -4 6 3 10 8 10 11 0 2 -4 4 -10 4 -5 0 -10
-5 -10 -11z"/>
<path d="M2960 3530 c0 -5 5 -10 11 -10 5 0 7 5 4 10 -3 6 -8 10 -11 10 -2 0
-4 -4 -4 -10z"/>
<path d="M1848 3343 c7 -3 16 -2 19 1 4 3 -2 6 -13 5 -11 0 -14 -3 -6 -6z"/>
<path d="M1978 3343 c12 -2 32 -2 45 0 12 2 2 4 -23 4 -25 0 -35 -2 -22 -4z"/>
<path d="M2751 2848 c-69 -26 -144 -99 -177 -173 -28 -61 -44 -165 -25 -165 6
0 11 10 11 21 0 42 68 165 114 207 53 49 79 56 42 12 -58 -70 -57 -171 4 -241
l37 -44 69 24 c68 23 164 63 194 80 10 5 16 27 18 59 4 64 -31 130 -83 158
-45 24 -30 39 26 24 63 -17 116 -47 156 -86 44 -44 52 -38 20 13 -73 116 -260
167 -406 111z m49 -133 c26 -32 -13 -81 -47 -59 -35 22 -23 74 17 74 10 0 23
-7 30 -15z"/>
<path d="M1889 2826 c-51 -31 -176 -93 -260 -130 -19 -8 -72 -27 -117 -41 -84
-26 -88 -30 -73 -54 7 -10 21 -12 57 -7 l47 6 -19 -22 -19 -22 35 21 c45 27
124 58 225 88 122 36 189 62 193 74 5 15 -6 14 -65 -9 -29 -11 -53 -18 -53
-16 0 2 24 17 53 34 58 33 81 56 91 90 11 33 -27 29 -95 -12z"/>
<path d="M1725 2457 c-53 -17 -73 -28 -35 -20 65 14 252 9 290 -8 74 -34 89
-38 95 -29 4 6 0 12 -7 14 -178 57 -264 67 -343 43z"/>
<path d="M1530 2370 c-8 -5 -12 -11 -10 -14 3 -2 14 2 24 10 22 15 10 19 -14
4z"/>
<path d="M2170 2043 c0 -55 31 -100 77 -112 117 -33 293 18 293 85 0 28 1 28
-37 9 -17 -8 -57 -17 -89 -20 -33 -3 -84 -7 -115 -11 -54 -5 -57 -4 -82 26
-15 17 -27 38 -27 46 0 8 -4 14 -10 14 -5 0 -10 -17 -10 -37z"/>
</g>
</svg>
